<?xml version="1.0" encoding="utf-8"?>
<!-- Generator: Adobe Illustrator 25.1.0, SVG Export Plug-In . SVG Version: 6.00 Build 0)  -->
<svg version="1.1" xmlns="http://www.w3.org/2000/svg" xmlns:xlink="http://www.w3.org/1999/xlink" x="0px" y="0px"
	 viewBox="0 0 120 120" style="enable-background:new 0 0 120 120;" xml:space="preserve">
<title>Proactive Support</title>
<metadata><?xpacket begin="﻿" id="W5M0MpCehiHzreSzNTczkc9d"?>
<x:xmpmeta xmlns:x="adobe:ns:meta/" x:xmptk="Adobe XMP Core 6.0-c002 79.164488, 2020/07/10-22:06:53        ">
   <rdf:RDF xmlns:rdf="http://www.w3.org/1999/02/22-rdf-syntax-ns#">
      <rdf:Description rdf:about=""
            xmlns:xmp="http://ns.adobe.com/xap/1.0/"
            xmlns:xmpMM="http://ns.adobe.com/xap/1.0/mm/"
            xmlns:stEvt="http://ns.adobe.com/xap/1.0/sType/ResourceEvent#"
            xmlns:lr="http://ns.adobe.com/lightroom/1.0/"
            xmlns:dc="http://purl.org/dc/elements/1.1/">
         <xmp:MetadataDate>2021-02-15T17:26:35-06:00</xmp:MetadataDate>
         <xmpMM:InstanceID>xmp.iid:fef27991-56b1-40c9-81be-ed1a5d22be01</xmpMM:InstanceID>
         <xmpMM:DocumentID>xmp.did:739fa734-8997-45a5-9723-c06d60c883a5</xmpMM:DocumentID>
         <xmpMM:OriginalDocumentID>xmp.did:739fa734-8997-45a5-9723-c06d60c883a5</xmpMM:OriginalDocumentID>
         <xmpMM:History>
            <rdf:Seq>
               <rdf:li>
                  <rdf:Description>
                     <stEvt:action>saved</stEvt:action>
                     <stEvt:instanceID>xmp.iid:739fa734-8997-45a5-9723-c06d60c883a5</stEvt:instanceID>
                     <stEvt:when>2021-02-15T14:56:02-06:00</stEvt:when>
                     <stEvt:softwareAgent>Adobe Bridge 2021 (Macintosh)</stEvt:softwareAgent>
                     <stEvt:changed>/metadata</stEvt:changed>
                  </rdf:Description>
               </rdf:li>
               <rdf:li>
                  <rdf:Description>
                     <stEvt:action>saved</stEvt:action>
                     <stEvt:instanceID>xmp.iid:fef27991-56b1-40c9-81be-ed1a5d22be01</stEvt:instanceID>
                     <stEvt:when>2021-02-15T17:26:35-06:00</stEvt:when>
                     <stEvt:softwareAgent>Adobe Bridge 2021 (Macintosh)</stEvt:softwareAgent>
                     <stEvt:changed>/metadata</stEvt:changed>
                  </rdf:Description>
               </rdf:li>
            </rdf:Seq>
         </xmpMM:History>
         <lr:hierarchicalSubject>
            <rdf:Bag>
               <rdf:li>Category names|Tools</rdf:li>
               <rdf:li>Category names|Processes</rdf:li>
               <rdf:li>Category names|Performance</rdf:li>
               <rdf:li>Color[JW2]|2-Color</rdf:li>
               <rdf:li>Color[JW2]|Light Background</rdf:li>
               <rdf:li>General[JW1]|Browser</rdf:li>
               <rdf:li>General[JW1]|Arrow</rdf:li>
            </rdf:Bag>
         </lr:hierarchicalSubject>
         <dc:subject>
            <rdf:Bag>
               <rdf:li>Tools</rdf:li>
               <rdf:li>Processes</rdf:li>
               <rdf:li>Performance</rdf:li>
               <rdf:li>Icon</rdf:li>
               <rdf:li>2-Color</rdf:li>
               <rdf:li>Light Background</rdf:li>
               <rdf:li>Browser</rdf:li>
               <rdf:li>Arrow</rdf:li>
            </rdf:Bag>
         </dc:subject>
         <dc:title>
            <rdf:Alt>
               <rdf:li xml:lang="x-default">Proactive Support</rdf:li>
            </rdf:Alt>
         </dc:title>
      </rdf:Description>
   </rdf:RDF>
</x:xmpmeta>
                                                                                                    
                                                                                                    
                                                                                                    
                                                                                                    
                                                                                                    
                                                                                                    
                                                                                                    
                                                     
<?xpacket end="w"?></metadata>
<style type="text/css">
	.st0{display:none;}
	.st1{display:inline;}
	.st2{fill:#FFFFFF;stroke:#EC008C;stroke-width:0.1;stroke-miterlimit:10;}
	.st3{fill:#1D428A;}
	.st4{fill:#0091DA;}
</style>
<g id="_x39_5x95_Grids" class="st0">
	<g class="st1">
		<rect x="11.9" y="12.2" class="st2" width="5" height="5"/>
		<rect x="16.9" y="12.2" class="st2" width="5" height="5"/>
		<rect x="21.9" y="12.2" class="st2" width="5" height="5"/>
		<rect x="26.9" y="12.2" class="st2" width="5" height="5"/>
		<rect x="31.9" y="12.2" class="st2" width="5" height="5"/>
		<rect x="36.9" y="12.2" class="st2" width="5" height="5"/>
		<rect x="41.9" y="12.2" class="st2" width="5" height="5"/>
		<rect x="46.9" y="12.2" class="st2" width="5" height="5"/>
		<rect x="51.9" y="12.2" class="st2" width="5" height="5"/>
		<rect x="56.9" y="12.2" class="st2" width="5" height="5"/>
		<rect x="61.9" y="12.2" class="st2" width="5" height="5"/>
		<rect x="66.9" y="12.2" class="st2" width="5" height="5"/>
		<rect x="71.9" y="12.2" class="st2" width="5" height="5"/>
		<rect x="76.9" y="12.2" class="st2" width="5" height="5"/>
		<rect x="81.9" y="12.2" class="st2" width="5" height="5"/>
		<rect x="86.9" y="12.2" class="st2" width="5" height="5"/>
		<rect x="91.9" y="12.2" class="st2" width="5" height="5"/>
		<rect x="96.9" y="12.2" class="st2" width="5" height="5"/>
		<rect x="101.9" y="12.2" class="st2" width="5" height="5"/>
		<rect x="11.9" y="17.2" class="st2" width="5" height="5"/>
		<rect x="16.9" y="17.2" class="st2" width="5" height="5"/>
		<rect x="21.9" y="17.2" class="st2" width="5" height="5"/>
		<rect x="26.9" y="17.2" class="st2" width="5" height="5"/>
		<rect x="31.9" y="17.2" class="st2" width="5" height="5"/>
		<rect x="36.9" y="17.2" class="st2" width="5" height="5"/>
		<rect x="41.9" y="17.2" class="st2" width="5" height="5"/>
		<rect x="46.9" y="17.2" class="st2" width="5" height="5"/>
		<rect x="51.9" y="17.2" class="st2" width="5" height="5"/>
		<rect x="56.9" y="17.2" class="st2" width="5" height="5"/>
		<rect x="61.9" y="17.2" class="st2" width="5" height="5"/>
		<rect x="66.9" y="17.2" class="st2" width="5" height="5"/>
		<rect x="71.9" y="17.2" class="st2" width="5" height="5"/>
		<rect x="76.9" y="17.2" class="st2" width="5" height="5"/>
		<rect x="81.9" y="17.2" class="st2" width="5" height="5"/>
		<rect x="86.9" y="17.2" class="st2" width="5" height="5"/>
		<rect x="91.9" y="17.2" class="st2" width="5" height="5"/>
		<rect x="96.9" y="17.2" class="st2" width="5" height="5"/>
		<rect x="101.9" y="17.2" class="st2" width="5" height="5"/>
		<rect x="11.9" y="22.2" class="st2" width="5" height="5"/>
		<rect x="16.9" y="22.2" class="st2" width="5" height="5"/>
		<rect x="21.9" y="22.2" class="st2" width="5" height="5"/>
		<rect x="26.9" y="22.2" class="st2" width="5" height="5"/>
		<rect x="31.9" y="22.2" class="st2" width="5" height="5"/>
		<rect x="36.9" y="22.2" class="st2" width="5" height="5"/>
		<rect x="41.9" y="22.2" class="st2" width="5" height="5"/>
		<rect x="46.9" y="22.2" class="st2" width="5" height="5"/>
		<rect x="51.9" y="22.2" class="st2" width="5" height="5"/>
		<rect x="56.9" y="22.2" class="st2" width="5" height="5"/>
		<rect x="61.9" y="22.2" class="st2" width="5" height="5"/>
		<rect x="66.9" y="22.2" class="st2" width="5" height="5"/>
		<rect x="71.9" y="22.2" class="st2" width="5" height="5"/>
		<rect x="76.9" y="22.2" class="st2" width="5" height="5"/>
		<rect x="81.9" y="22.2" class="st2" width="5" height="5"/>
		<rect x="86.9" y="22.2" class="st2" width="5" height="5"/>
		<rect x="91.9" y="22.2" class="st2" width="5" height="5"/>
		<rect x="96.9" y="22.2" class="st2" width="5" height="5"/>
		<rect x="101.9" y="22.2" class="st2" width="5" height="5"/>
		<rect x="11.9" y="27.2" class="st2" width="5" height="5"/>
		<rect x="16.9" y="27.2" class="st2" width="5" height="5"/>
		<rect x="21.9" y="27.2" class="st2" width="5" height="5"/>
		<rect x="26.9" y="27.2" class="st2" width="5" height="5"/>
		<rect x="31.9" y="27.2" class="st2" width="5" height="5"/>
		<rect x="36.9" y="27.2" class="st2" width="5" height="5"/>
		<rect x="41.9" y="27.2" class="st2" width="5" height="5"/>
		<rect x="46.9" y="27.2" class="st2" width="5" height="5"/>
		<rect x="51.9" y="27.2" class="st2" width="5" height="5"/>
		<rect x="56.9" y="27.2" class="st2" width="5" height="5"/>
		<rect x="61.9" y="27.2" class="st2" width="5" height="5"/>
		<rect x="66.9" y="27.2" class="st2" width="5" height="5"/>
		<rect x="71.9" y="27.2" class="st2" width="5" height="5"/>
		<rect x="76.9" y="27.2" class="st2" width="5" height="5"/>
		<rect x="81.9" y="27.2" class="st2" width="5" height="5"/>
		<rect x="86.9" y="27.2" class="st2" width="5" height="5"/>
		<rect x="91.9" y="27.2" class="st2" width="5" height="5"/>
		<rect x="96.9" y="27.2" class="st2" width="5" height="5"/>
		<rect x="101.9" y="27.2" class="st2" width="5" height="5"/>
		<rect x="11.9" y="32.2" class="st2" width="5" height="5"/>
		<rect x="16.9" y="32.2" class="st2" width="5" height="5"/>
		<rect x="21.9" y="32.2" class="st2" width="5" height="5"/>
		<rect x="26.9" y="32.2" class="st2" width="5" height="5"/>
		<rect x="31.9" y="32.2" class="st2" width="5" height="5"/>
		<rect x="36.9" y="32.2" class="st2" width="5" height="5"/>
		<rect x="41.9" y="32.2" class="st2" width="5" height="5"/>
		<rect x="46.9" y="32.2" class="st2" width="5" height="5"/>
		<rect x="51.9" y="32.2" class="st2" width="5" height="5"/>
		<rect x="56.9" y="32.2" class="st2" width="5" height="5"/>
		<rect x="61.9" y="32.2" class="st2" width="5" height="5"/>
		<rect x="66.9" y="32.2" class="st2" width="5" height="5"/>
		<rect x="71.9" y="32.2" class="st2" width="5" height="5"/>
		<rect x="76.9" y="32.2" class="st2" width="5" height="5"/>
		<rect x="81.9" y="32.2" class="st2" width="5" height="5"/>
		<rect x="86.9" y="32.2" class="st2" width="5" height="5"/>
		<rect x="91.9" y="32.2" class="st2" width="5" height="5"/>
		<rect x="96.9" y="32.2" class="st2" width="5" height="5"/>
		<rect x="101.9" y="32.2" class="st2" width="5" height="5"/>
		<rect x="11.9" y="37.2" class="st2" width="5" height="5"/>
		<rect x="16.9" y="37.2" class="st2" width="5" height="5"/>
		<rect x="21.9" y="37.2" class="st2" width="5" height="5"/>
		<rect x="26.9" y="37.2" class="st2" width="5" height="5"/>
		<rect x="31.9" y="37.2" class="st2" width="5" height="5"/>
		<rect x="36.9" y="37.2" class="st2" width="5" height="5"/>
		<rect x="41.9" y="37.2" class="st2" width="5" height="5"/>
		<rect x="46.9" y="37.2" class="st2" width="5" height="5"/>
		<rect x="51.9" y="37.2" class="st2" width="5" height="5"/>
		<rect x="56.9" y="37.2" class="st2" width="5" height="5"/>
		<rect x="61.9" y="37.2" class="st2" width="5" height="5"/>
		<rect x="66.9" y="37.2" class="st2" width="5" height="5"/>
		<rect x="71.9" y="37.2" class="st2" width="5" height="5"/>
		<rect x="76.9" y="37.2" class="st2" width="5" height="5"/>
		<rect x="81.9" y="37.2" class="st2" width="5" height="5"/>
		<rect x="86.9" y="37.2" class="st2" width="5" height="5"/>
		<rect x="91.9" y="37.2" class="st2" width="5" height="5"/>
		<rect x="96.9" y="37.2" class="st2" width="5" height="5"/>
		<rect x="101.9" y="37.2" class="st2" width="5" height="5"/>
		<rect x="11.9" y="42.2" class="st2" width="5" height="5"/>
		<rect x="16.9" y="42.2" class="st2" width="5" height="5"/>
		<rect x="21.9" y="42.2" class="st2" width="5" height="5"/>
		<rect x="26.9" y="42.2" class="st2" width="5" height="5"/>
		<rect x="31.9" y="42.2" class="st2" width="5" height="5"/>
		<rect x="36.9" y="42.2" class="st2" width="5" height="5"/>
		<rect x="41.9" y="42.2" class="st2" width="5" height="5"/>
		<rect x="46.9" y="42.2" class="st2" width="5" height="5"/>
		<rect x="51.9" y="42.2" class="st2" width="5" height="5"/>
		<rect x="56.9" y="42.2" class="st2" width="5" height="5"/>
		<rect x="61.9" y="42.2" class="st2" width="5" height="5"/>
		<rect x="66.9" y="42.2" class="st2" width="5" height="5"/>
		<rect x="71.9" y="42.2" class="st2" width="5" height="5"/>
		<rect x="76.9" y="42.2" class="st2" width="5" height="5"/>
		<rect x="81.9" y="42.2" class="st2" width="5" height="5"/>
		<rect x="86.9" y="42.2" class="st2" width="5" height="5"/>
		<rect x="91.9" y="42.2" class="st2" width="5" height="5"/>
		<rect x="96.9" y="42.2" class="st2" width="5" height="5"/>
		<rect x="101.9" y="42.2" class="st2" width="5" height="5"/>
		<rect x="11.9" y="47.2" class="st2" width="5" height="5"/>
		<rect x="16.9" y="47.2" class="st2" width="5" height="5"/>
		<rect x="21.9" y="47.2" class="st2" width="5" height="5"/>
		<rect x="26.9" y="47.2" class="st2" width="5" height="5"/>
		<rect x="31.9" y="47.2" class="st2" width="5" height="5"/>
		<rect x="36.9" y="47.2" class="st2" width="5" height="5"/>
		<rect x="41.9" y="47.2" class="st2" width="5" height="5"/>
		<rect x="46.9" y="47.2" class="st2" width="5" height="5"/>
		<rect x="51.9" y="47.2" class="st2" width="5" height="5"/>
		<rect x="56.9" y="47.2" class="st2" width="5" height="5"/>
		<rect x="61.9" y="47.2" class="st2" width="5" height="5"/>
		<rect x="66.9" y="47.2" class="st2" width="5" height="5"/>
		<rect x="71.9" y="47.2" class="st2" width="5" height="5"/>
		<rect x="76.9" y="47.2" class="st2" width="5" height="5"/>
		<rect x="81.9" y="47.2" class="st2" width="5" height="5"/>
		<rect x="86.9" y="47.2" class="st2" width="5" height="5"/>
		<rect x="91.9" y="47.2" class="st2" width="5" height="5"/>
		<rect x="96.9" y="47.2" class="st2" width="5" height="5"/>
		<rect x="101.9" y="47.2" class="st2" width="5" height="5"/>
		<rect x="11.9" y="52.2" class="st2" width="5" height="5"/>
		<rect x="16.9" y="52.2" class="st2" width="5" height="5"/>
		<rect x="21.9" y="52.2" class="st2" width="5" height="5"/>
		<rect x="26.9" y="52.2" class="st2" width="5" height="5"/>
		<rect x="31.9" y="52.2" class="st2" width="5" height="5"/>
		<rect x="36.9" y="52.2" class="st2" width="5" height="5"/>
		<rect x="41.9" y="52.2" class="st2" width="5" height="5"/>
		<rect x="46.9" y="52.2" class="st2" width="5" height="5"/>
		<rect x="51.9" y="52.2" class="st2" width="5" height="5"/>
		<rect x="56.9" y="52.2" class="st2" width="5" height="5"/>
		<rect x="61.9" y="52.2" class="st2" width="5" height="5"/>
		<rect x="66.9" y="52.2" class="st2" width="5" height="5"/>
		<rect x="71.9" y="52.2" class="st2" width="5" height="5"/>
		<rect x="76.9" y="52.2" class="st2" width="5" height="5"/>
		<rect x="81.9" y="52.2" class="st2" width="5" height="5"/>
		<rect x="86.9" y="52.2" class="st2" width="5" height="5"/>
		<rect x="91.9" y="52.2" class="st2" width="5" height="5"/>
		<rect x="96.9" y="52.2" class="st2" width="5" height="5"/>
		<rect x="101.9" y="52.2" class="st2" width="5" height="5"/>
		<rect x="11.9" y="57.2" class="st2" width="5" height="5"/>
		<rect x="16.9" y="57.2" class="st2" width="5" height="5"/>
		<rect x="21.9" y="57.2" class="st2" width="5" height="5"/>
		<rect x="26.9" y="57.2" class="st2" width="5" height="5"/>
		<rect x="31.9" y="57.2" class="st2" width="5" height="5"/>
		<rect x="36.9" y="57.2" class="st2" width="5" height="5"/>
		<rect x="41.9" y="57.2" class="st2" width="5" height="5"/>
		<rect x="46.9" y="57.2" class="st2" width="5" height="5"/>
		<rect x="51.9" y="57.2" class="st2" width="5" height="5"/>
		<rect x="56.9" y="57.2" class="st2" width="5" height="5"/>
		<rect x="61.9" y="57.2" class="st2" width="5" height="5"/>
		<rect x="66.9" y="57.2" class="st2" width="5" height="5"/>
		<rect x="71.9" y="57.2" class="st2" width="5" height="5"/>
		<rect x="76.9" y="57.2" class="st2" width="5" height="5"/>
		<rect x="81.9" y="57.2" class="st2" width="5" height="5"/>
		<rect x="86.9" y="57.2" class="st2" width="5" height="5"/>
		<rect x="91.9" y="57.2" class="st2" width="5" height="5"/>
		<rect x="96.9" y="57.2" class="st2" width="5" height="5"/>
		<rect x="101.9" y="57.2" class="st2" width="5" height="5"/>
		<rect x="11.9" y="62.2" class="st2" width="5" height="5"/>
		<rect x="16.9" y="62.2" class="st2" width="5" height="5"/>
		<rect x="21.9" y="62.2" class="st2" width="5" height="5"/>
		<rect x="26.9" y="62.2" class="st2" width="5" height="5"/>
		<rect x="31.9" y="62.2" class="st2" width="5" height="5"/>
		<rect x="36.9" y="62.2" class="st2" width="5" height="5"/>
		<rect x="41.9" y="62.2" class="st2" width="5" height="5"/>
		<rect x="46.9" y="62.2" class="st2" width="5" height="5"/>
		<rect x="51.9" y="62.2" class="st2" width="5" height="5"/>
		<rect x="56.9" y="62.2" class="st2" width="5" height="5"/>
		<rect x="61.9" y="62.2" class="st2" width="5" height="5"/>
		<rect x="66.9" y="62.2" class="st2" width="5" height="5"/>
		<rect x="71.9" y="62.2" class="st2" width="5" height="5"/>
		<rect x="76.9" y="62.2" class="st2" width="5" height="5"/>
		<rect x="81.9" y="62.2" class="st2" width="5" height="5"/>
		<rect x="86.9" y="62.2" class="st2" width="5" height="5"/>
		<rect x="91.9" y="62.2" class="st2" width="5" height="5"/>
		<rect x="96.9" y="62.2" class="st2" width="5" height="5"/>
		<rect x="101.9" y="62.2" class="st2" width="5" height="5"/>
		<rect x="11.9" y="67.2" class="st2" width="5" height="5"/>
		<rect x="16.9" y="67.2" class="st2" width="5" height="5"/>
		<rect x="21.9" y="67.2" class="st2" width="5" height="5"/>
		<rect x="26.9" y="67.2" class="st2" width="5" height="5"/>
		<rect x="31.9" y="67.2" class="st2" width="5" height="5"/>
		<rect x="36.9" y="67.2" class="st2" width="5" height="5"/>
		<rect x="41.9" y="67.2" class="st2" width="5" height="5"/>
		<rect x="46.9" y="67.2" class="st2" width="5" height="5"/>
		<rect x="51.9" y="67.2" class="st2" width="5" height="5"/>
		<rect x="56.9" y="67.2" class="st2" width="5" height="5"/>
		<rect x="61.9" y="67.2" class="st2" width="5" height="5"/>
		<rect x="66.9" y="67.2" class="st2" width="5" height="5"/>
		<rect x="71.9" y="67.2" class="st2" width="5" height="5"/>
		<rect x="76.9" y="67.2" class="st2" width="5" height="5"/>
		<rect x="81.9" y="67.2" class="st2" width="5" height="5"/>
		<rect x="86.9" y="67.2" class="st2" width="5" height="5"/>
		<rect x="91.9" y="67.2" class="st2" width="5" height="5"/>
		<rect x="96.9" y="67.2" class="st2" width="5" height="5"/>
		<rect x="101.9" y="67.2" class="st2" width="5" height="5"/>
		<rect x="11.9" y="72.2" class="st2" width="5" height="5"/>
		<rect x="16.9" y="72.2" class="st2" width="5" height="5"/>
		<rect x="21.9" y="72.2" class="st2" width="5" height="5"/>
		<rect x="26.9" y="72.2" class="st2" width="5" height="5"/>
		<rect x="31.9" y="72.2" class="st2" width="5" height="5"/>
		<rect x="36.9" y="72.2" class="st2" width="5" height="5"/>
		<rect x="41.9" y="72.2" class="st2" width="5" height="5"/>
		<rect x="46.9" y="72.2" class="st2" width="5" height="5"/>
		<rect x="51.9" y="72.2" class="st2" width="5" height="5"/>
		<rect x="56.9" y="72.2" class="st2" width="5" height="5"/>
		<rect x="61.9" y="72.2" class="st2" width="5" height="5"/>
		<rect x="66.9" y="72.2" class="st2" width="5" height="5"/>
		<rect x="71.9" y="72.2" class="st2" width="5" height="5"/>
		<rect x="76.9" y="72.2" class="st2" width="5" height="5"/>
		<rect x="81.9" y="72.2" class="st2" width="5" height="5"/>
		<rect x="86.9" y="72.2" class="st2" width="5" height="5"/>
		<rect x="91.9" y="72.2" class="st2" width="5" height="5"/>
		<rect x="96.9" y="72.2" class="st2" width="5" height="5"/>
		<rect x="101.9" y="72.2" class="st2" width="5" height="5"/>
		<rect x="11.9" y="77.2" class="st2" width="5" height="5"/>
		<rect x="16.9" y="77.2" class="st2" width="5" height="5"/>
		<rect x="21.9" y="77.2" class="st2" width="5" height="5"/>
		<rect x="26.9" y="77.2" class="st2" width="5" height="5"/>
		<rect x="31.9" y="77.2" class="st2" width="5" height="5"/>
		<rect x="36.9" y="77.2" class="st2" width="5" height="5"/>
		<rect x="41.9" y="77.2" class="st2" width="5" height="5"/>
		<rect x="46.9" y="77.2" class="st2" width="5" height="5"/>
		<rect x="51.9" y="77.2" class="st2" width="5" height="5"/>
		<rect x="56.9" y="77.2" class="st2" width="5" height="5"/>
		<rect x="61.9" y="77.2" class="st2" width="5" height="5"/>
		<rect x="66.9" y="77.2" class="st2" width="5" height="5"/>
		<rect x="71.9" y="77.2" class="st2" width="5" height="5"/>
		<rect x="76.9" y="77.2" class="st2" width="5" height="5"/>
		<rect x="81.9" y="77.2" class="st2" width="5" height="5"/>
		<rect x="86.9" y="77.2" class="st2" width="5" height="5"/>
		<rect x="91.9" y="77.2" class="st2" width="5" height="5"/>
		<rect x="96.9" y="77.2" class="st2" width="5" height="5"/>
		<rect x="101.9" y="77.2" class="st2" width="5" height="5"/>
		<rect x="11.9" y="82.2" class="st2" width="5" height="5"/>
		<rect x="16.9" y="82.2" class="st2" width="5" height="5"/>
		<rect x="21.9" y="82.2" class="st2" width="5" height="5"/>
		<rect x="26.9" y="82.2" class="st2" width="5" height="5"/>
		<rect x="31.9" y="82.2" class="st2" width="5" height="5"/>
		<rect x="36.9" y="82.2" class="st2" width="5" height="5"/>
		<rect x="41.9" y="82.2" class="st2" width="5" height="5"/>
		<rect x="46.9" y="82.2" class="st2" width="5" height="5"/>
		<rect x="51.9" y="82.2" class="st2" width="5" height="5"/>
		<rect x="56.9" y="82.2" class="st2" width="5" height="5"/>
		<rect x="61.9" y="82.2" class="st2" width="5" height="5"/>
		<rect x="66.9" y="82.2" class="st2" width="5" height="5"/>
		<rect x="71.9" y="82.2" class="st2" width="5" height="5"/>
		<rect x="76.9" y="82.2" class="st2" width="5" height="5"/>
		<rect x="81.9" y="82.2" class="st2" width="5" height="5"/>
		<rect x="86.9" y="82.2" class="st2" width="5" height="5"/>
		<rect x="91.9" y="82.2" class="st2" width="5" height="5"/>
		<rect x="96.9" y="82.2" class="st2" width="5" height="5"/>
		<rect x="101.9" y="82.2" class="st2" width="5" height="5"/>
		<rect x="11.9" y="87.2" class="st2" width="5" height="5"/>
		<rect x="16.9" y="87.2" class="st2" width="5" height="5"/>
		<rect x="21.9" y="87.2" class="st2" width="5" height="5"/>
		<rect x="26.9" y="87.2" class="st2" width="5" height="5"/>
		<rect x="31.9" y="87.2" class="st2" width="5" height="5"/>
		<rect x="36.9" y="87.2" class="st2" width="5" height="5"/>
		<rect x="41.9" y="87.2" class="st2" width="5" height="5"/>
		<rect x="46.9" y="87.2" class="st2" width="5" height="5"/>
		<rect x="51.9" y="87.2" class="st2" width="5" height="5"/>
		<rect x="56.9" y="87.2" class="st2" width="5" height="5"/>
		<rect x="61.9" y="87.2" class="st2" width="5" height="5"/>
		<rect x="66.9" y="87.2" class="st2" width="5" height="5"/>
		<rect x="71.9" y="87.2" class="st2" width="5" height="5"/>
		<rect x="76.9" y="87.2" class="st2" width="5" height="5"/>
		<rect x="81.9" y="87.2" class="st2" width="5" height="5"/>
		<rect x="86.9" y="87.2" class="st2" width="5" height="5"/>
		<rect x="91.9" y="87.2" class="st2" width="5" height="5"/>
		<rect x="96.9" y="87.2" class="st2" width="5" height="5"/>
		<rect x="101.9" y="87.2" class="st2" width="5" height="5"/>
		<rect x="11.9" y="92.2" class="st2" width="5" height="5"/>
		<rect x="16.9" y="92.2" class="st2" width="5" height="5"/>
		<rect x="21.9" y="92.2" class="st2" width="5" height="5"/>
		<rect x="26.9" y="92.2" class="st2" width="5" height="5"/>
		<rect x="31.9" y="92.2" class="st2" width="5" height="5"/>
		<rect x="36.9" y="92.2" class="st2" width="5" height="5"/>
		<rect x="41.9" y="92.2" class="st2" width="5" height="5"/>
		<rect x="46.9" y="92.2" class="st2" width="5" height="5"/>
		<rect x="51.9" y="92.2" class="st2" width="5" height="5"/>
		<rect x="56.9" y="92.2" class="st2" width="5" height="5"/>
		<rect x="61.9" y="92.2" class="st2" width="5" height="5"/>
		<rect x="66.9" y="92.2" class="st2" width="5" height="5"/>
		<rect x="71.9" y="92.2" class="st2" width="5" height="5"/>
		<rect x="76.9" y="92.2" class="st2" width="5" height="5"/>
		<rect x="81.9" y="92.2" class="st2" width="5" height="5"/>
		<rect x="86.9" y="92.2" class="st2" width="5" height="5"/>
		<rect x="91.9" y="92.2" class="st2" width="5" height="5"/>
		<rect x="96.9" y="92.2" class="st2" width="5" height="5"/>
		<rect x="101.9" y="92.2" class="st2" width="5" height="5"/>
		<rect x="11.9" y="97.2" class="st2" width="5" height="5"/>
		<rect x="16.9" y="97.2" class="st2" width="5" height="5"/>
		<rect x="21.9" y="97.2" class="st2" width="5" height="5"/>
		<rect x="26.9" y="97.2" class="st2" width="5" height="5"/>
		<rect x="31.9" y="97.2" class="st2" width="5" height="5"/>
		<rect x="36.9" y="97.2" class="st2" width="5" height="5"/>
		<rect x="41.9" y="97.2" class="st2" width="5" height="5"/>
		<rect x="46.9" y="97.2" class="st2" width="5" height="5"/>
		<rect x="51.9" y="97.2" class="st2" width="5" height="5"/>
		<rect x="56.9" y="97.2" class="st2" width="5" height="5"/>
		<rect x="61.9" y="97.2" class="st2" width="5" height="5"/>
		<rect x="66.9" y="97.2" class="st2" width="5" height="5"/>
		<rect x="71.9" y="97.2" class="st2" width="5" height="5"/>
		<rect x="76.9" y="97.2" class="st2" width="5" height="5"/>
		<rect x="81.9" y="97.2" class="st2" width="5" height="5"/>
		<rect x="86.9" y="97.2" class="st2" width="5" height="5"/>
		<rect x="91.9" y="97.2" class="st2" width="5" height="5"/>
		<rect x="96.9" y="97.2" class="st2" width="5" height="5"/>
		<rect x="101.9" y="97.2" class="st2" width="5" height="5"/>
		<rect x="11.9" y="102.2" class="st2" width="5" height="5"/>
		<rect x="16.9" y="102.2" class="st2" width="5" height="5"/>
		<rect x="21.9" y="102.2" class="st2" width="5" height="5"/>
		<rect x="26.9" y="102.2" class="st2" width="5" height="5"/>
		<rect x="31.9" y="102.2" class="st2" width="5" height="5"/>
		<rect x="36.9" y="102.2" class="st2" width="5" height="5"/>
		<rect x="41.9" y="102.2" class="st2" width="5" height="5"/>
		<rect x="46.9" y="102.2" class="st2" width="5" height="5"/>
		<rect x="51.9" y="102.2" class="st2" width="5" height="5"/>
		<rect x="56.9" y="102.2" class="st2" width="5" height="5"/>
		<rect x="61.9" y="102.2" class="st2" width="5" height="5"/>
		<rect x="66.9" y="102.2" class="st2" width="5" height="5"/>
		<rect x="71.9" y="102.2" class="st2" width="5" height="5"/>
		<rect x="76.9" y="102.2" class="st2" width="5" height="5"/>
		<rect x="81.9" y="102.2" class="st2" width="5" height="5"/>
		<rect x="86.9" y="102.2" class="st2" width="5" height="5"/>
		<rect x="91.9" y="102.2" class="st2" width="5" height="5"/>
		<rect x="96.9" y="102.2" class="st2" width="5" height="5"/>
		<rect x="101.9" y="102.2" class="st2" width="5" height="5"/>
	</g>
</g>
<g id="Tools-Processes-Performance_2color-light_bk">
	<g id="Proactive_Support_1_">
		<path class="st3" d="M86.6,28.3L86.6,28.3c0.8,0,1.3-0.5,1.3-1.3c0-0.8-0.5-1.2-1.2-1.2c-0.7,0-1.3,0.5-1.3,1.3
			C85.4,27.9,85.9,28.3,86.6,28.3z"/>
		<path class="st3" d="M81.6,28.3L81.6,28.3c0.8,0,1.3-0.5,1.3-1.3c0-0.8-0.5-1.2-1.2-1.2c-0.7,0-1.3,0.5-1.3,1.3
			C80.4,27.9,80.9,28.3,81.6,28.3z"/>
		<path class="st3" d="M76.6,28.3L76.6,28.3c0.8,0,1.3-0.5,1.3-1.3c0-0.8-0.5-1.2-1.2-1.2c-0.7,0-1.3,0.5-1.3,1.3
			C75.4,27.9,75.9,28.3,76.6,28.3z"/>
		<path class="st3" d="M63.6,76.8h-47v-55h75v10.9H20.8v2.5h70.7v27.1c0.9,0.2,1.7,0.5,2.5,0.8V19.3H14v60h48.7
			C63,78.4,63.3,77.6,63.6,76.8z"/>
		<path class="st4" d="M105.6,87.7c-0.7-0.1-1.3,0.4-1.4,1.1c-1.4,10.1-10.9,17.2-21,15.8c-4.9-0.7-9.3-3.2-12.3-7.2
			c-3-3.9-4.2-8.8-3.5-13.7c1-7.2,6.2-13.1,13.1-15.2l0.2,3.4l7.9-5.2L80,62.4l0.2,3.5c-8.1,2.2-14.2,9-15.4,17.4
			c-0.8,5.5,0.6,11.1,4,15.5c3.4,4.5,8.4,7.4,14,8.2c1,0.1,2,0.2,2.9,0.2c10.4,0,19.4-7.6,20.9-18.1
			C106.7,88.4,106.2,87.8,105.6,87.7z"/>
		<g>
			<path class="st4" d="M86,83.1l1.2,1.3c0.4-0.3,1-0.5,1.5-0.5c0.2,0,0.3,0,0.4,0.1l2.6-2.6l0.8-0.8c1.4,0.6,3,0.3,4.1-0.8
				c1.1-1.1,1.4-2.7,0.8-4.1l-1.9,1.9L94,77.2l-0.4-1.6l1.9-1.9c-1.4-0.5-3-0.3-4.1,0.8c-1.1,1.1-1.4,2.7-0.8,4.1l-0.8,0.8L86,83.1z
				"/>
			<path class="st4" d="M83.8,89.3c-0.2-0.8,0-1.8,0.7-2.4l0.1-0.1l-1.1-1.2L79,90.1l-0.8,0.8c-1.4-0.6-3-0.3-4.1,0.8
				c-1.1,1.1-1.4,2.7-0.8,4.1l1.9-1.9l1.6,0.4l0.4,1.6l-1.9,1.9c1.4,0.5,3,0.3,4.1-0.8c1.1-1.1,1.4-2.7,0.8-4.1l0.8-0.8L83.8,89.3z"
				/>
		</g>
		<path class="st4" d="M98.2,94.3l-6.3-6.6L90.6,87c0-0.3-0.1-0.6-0.4-0.8l-0.6-0.7c-0.5-0.5-1.3-0.5-1.8,0l-2.4,2.3
			c-0.5,0.5-0.5,1.3,0,1.8l1.3,0.9l0.6,1.1l6.6,6.9l1.2,0.3l3.4-3.2L98.2,94.3z"/>
		<path class="st4" d="M86.8,85.8L80,78.7l0-1.6l-2.6-1.8l-1.5,1.5l1.9,2.7l1.5,0l6.7,7.1L86.8,85.8z"/>
	</g>
</g>
</svg>
